<?xml version="1.0" encoding="UTF-8"?>
<!DOCTYPE svg PUBLIC "-//W3C//DTD SVG 1.1//EN" "http://www.w3.org/Graphics/SVG/1.1/DTD/svg11.dtd">
<svg version="1.1" xmlns="http://www.w3.org/2000/svg" xmlns:xlink="http://www.w3.org/1999/xlink" width="320" height="50"  xml:space="preserve" id="countdownText">
    <!-- Generated by PaintCode (www.paintcodeapp.com) -->
    <g id="countdownText-electricImpLogoWhiteSVGsvgGroup">
        <g id="countdownText-group2">
            <g id="countdownText-group3">
                <g id="countdownText-group4">
                    <rect id="countdownText-rectangle" stroke="none" fill="rgb(255, 255, 255)" x="196.7" y="18.2" width="2" height="13.9" />
                    <rect id="countdownText-rectangle2" stroke="none" fill="rgb(255, 255, 255)" x="229.2" y="18.2" width="3" height="13.9" />
                    <path id="countdownText-bezier" stroke="none" fill="rgb(255, 255, 255)" d="M 251.63,17.65 C 249.78,17.65 248.01,18.47 246.93,19.86 245.81,18.47 244.07,17.65 242.22,17.65 238.98,17.65 236.36,20.08 236.36,23.07 L 236.36,32.4 238.64,32.4 238.64,23.07 C 238.64,21.25 240.26,19.75 242.22,19.75 244.19,19.75 245.81,21.25 245.81,23.07 L 245.81,32.4 248.08,32.4 248.08,23.07 C 248.08,21.25 249.7,19.75 251.67,19.75 253.64,19.75 255.26,21.25 255.26,23.07 L 255.26,32.4 257.53,32.4 257.53,23.07 C 257.49,20.08 254.87,17.65 251.63,17.65 Z M 251.63,17.65" />
                    <path id="countdownText-bezier2" stroke="none" fill="rgb(255, 255, 255)" d="M 277.01,22.35 C 275.77,19.51 272.84,17.65 269.6,17.65 267.48,17.65 265.51,18.44 264.01,19.83 262.51,21.22 261.66,23.07 261.62,25.03 L 261.62,25.03 261.62,38.1 263.93,38.1 263.93,30.55 C 265.48,32.01 267.48,32.83 269.68,32.83 272.84,32.83 275.69,31.05 277.01,28.34 277.47,27.34 277.7,26.31 277.7,25.24 277.62,24.24 277.43,23.28 277.01,22.35 Z M 274.81,27.48 C 273.88,29.41 271.84,30.65 269.6,30.65 266.44,30.65 263.86,28.23 263.86,25.24 263.86,22.25 266.44,19.83 269.6,19.83 271.95,19.83 274,21.14 274.88,23.21 275.15,23.85 275.31,24.56 275.31,25.24 275.31,26.02 275.15,26.77 274.81,27.48 Z M 274.81,27.48" />
                    <path id="countdownText-bezier3" stroke="none" fill="rgb(255, 255, 255)" d="M 178.21,13.2 L 175.89,13.2 175.89,27.13 C 175.89,30.05 178.48,32.44 181.64,32.44 L 182.83,32.44 182.83,30.3 181.64,30.3 C 179.75,30.3 178.21,28.87 178.21,27.16 L 178.21,20.32 182.83,20.32 182.83,18.19 178.21,18.22 178.21,13.2 Z M 178.21,13.2" />
                    <path id="countdownText-bezier5" stroke="none" fill="rgb(255, 255, 255)" d="M 122.37,17.65 C 118.01,17.65 114.5,21.07 114.5,25.31 114.5,29.55 118.05,32.97 122.37,32.97 124.53,32.97 126.57,32.12 128.04,30.62 L 128.65,30.01 128.69,29.98 127.19,28.7 127.15,28.66 126.53,29.3 C 125.41,30.41 123.95,31.05 122.37,31.05 120.98,31.05 119.63,30.55 118.59,29.66 117.55,28.77 116.85,27.59 116.66,26.27 L 130.23,26.27 130.23,25.31 C 130.23,21.07 126.72,17.65 122.37,17.65 Z M 116.66,24.35 C 116.89,23.03 117.59,21.82 118.59,20.97 119.63,20.08 120.98,19.58 122.37,19.58 123.76,19.58 125.1,20.08 126.15,20.97 127.19,21.86 127.88,23.03 128.07,24.35 L 116.66,24.35 Z M 116.66,24.35" />
                    <path id="countdownText-bezier7" stroke="none" fill="rgb(255, 255, 255)" d="M 147.39,17.65 C 143.04,17.65 139.53,21.07 139.53,25.31 139.53,29.55 143.08,32.97 147.39,32.97 149.55,32.97 151.6,32.12 153.06,30.62 L 153.68,30.01 153.72,29.98 152.21,28.7 152.18,28.66 151.56,29.3 C 150.44,30.41 148.98,31.05 147.39,31.05 146.01,31.05 144.66,30.55 143.62,29.66 142.57,28.77 141.88,27.59 141.69,26.27 L 155.26,26.27 155.26,25.31 C 155.26,21.07 151.75,17.65 147.39,17.65 Z M 141.69,24.35 C 141.92,23.03 142.61,21.82 143.62,20.97 144.66,20.08 146.01,19.58 147.39,19.58 148.78,19.58 150.13,20.08 151.17,20.97 152.21,21.86 152.91,23.03 153.1,24.35 L 141.69,24.35 Z M 141.69,24.35" />
                    <path id="countdownText-bezier9" stroke="none" fill="rgb(255, 255, 255)" d="M 166.17,19.83 C 168.53,19.83 170.57,21.14 171.46,23.25 L 171.46,23.28 173.58,22.43 173.58,22.39 C 172.34,19.51 169.41,17.65 166.17,17.65 161.74,17.65 158.15,21.07 158.15,25.31 158.15,29.52 161.74,32.97 166.17,32.97 169.34,32.97 172.19,31.19 173.5,28.45 L 173.5,28.41 171.42,27.56 171.38,27.56 171.38,27.59 C 170.46,29.55 168.41,30.8 166.17,30.8 163.01,30.8 160.43,28.34 160.43,25.35 160.43,22.28 163.01,19.83 166.17,19.83 Z M 166.17,19.83" />
                    <path id="countdownText-bezier11" stroke="none" fill="rgb(255, 255, 255)" d="M 210.72,19.83 C 213.07,19.83 215.11,21.14 216,23.25 L 216,23.28 218.12,22.43 218.12,22.39 C 216.89,19.51 213.95,17.65 210.72,17.65 206.28,17.65 202.69,21.07 202.69,25.31 202.69,29.52 206.28,32.97 210.72,32.97 213.88,32.97 216.73,31.19 218.04,28.45 L 218.04,28.41 215.96,27.56 215.92,27.56 215.92,27.59 C 215,29.55 212.95,30.8 210.72,30.8 207.55,30.8 205.01,28.34 205.01,25.35 204.97,22.28 207.55,19.83 210.72,19.83 Z M 210.72,19.83" />
                    <path id="countdownText-bezier13" stroke="none" fill="rgb(255, 255, 255)" d="M 185.96,23.46 L 185.96,32.44 188.23,32.44 188.23,23.57 C 188.23,21.82 189.78,20.4 191.7,20.4 L 193.75,20.4 193.75,18.26 191.7,18.26 C 188.58,18.19 186,20.54 185.96,23.46 Z M 185.96,23.46" />
                </g>
                <path id="countdownText-bezier15" stroke="none" fill="rgb(255, 255, 255)" d="M 136.25,29.34 C 135.98,28.87 135.83,28.29 135.79,27.6 L 135.79,12.7 133.47,12.7 133.47,27.6 C 133.43,28.51 133.63,29.34 133.97,30.07 134.32,30.8 134.78,31.34 135.4,31.74 136.02,32.14 136.71,32.32 137.48,32.32 L 137.95,32.32 137.95,30.07 137.48,30.07 C 136.98,30.11 136.56,29.85 136.25,29.34 Z M 136.25,29.34" />
                <g id="countdownText-group5">
                    <circle id="countdownText-oval" stroke="none" fill="rgb(255, 255, 255)" cx="198.6" cy="13.1" r="2.4" />
                    <circle id="countdownText-oval2" stroke="none" fill="rgb(255, 255, 255)" cx="231.1" cy="13.1" r="2.4" />
                </g>
            </g>
            <g id="countdownText-group6">
                <path id="countdownText-bezier17" stroke="none" fill="rgb(78, 168, 178)" d="M 202.12,13.2 L 202,11.57 C 202.55,11.31 214.68,4.74 227.6,11.57 L 227.44,13.16 C 215.16,6.72 202.28,13.16 202.12,13.2 Z M 202.12,13.2" />
            </g>
        </g>
        
        <text  fill="rgb(255, 255, 255)" font-family="Helvetica, sans-serif" font-size="12" x="276.84" y="15.93"><tspan x="276.84" y="26.93">™</tspan></text>
    </g>
    <path id="countdownText-poweredBy3" stroke="none" fill="rgb(255, 255, 255)" d="M 30.73,18 C 30.57,18 30.44,17.96 30.34,17.87 30.25,17.79 30.2,17.68 30.2,17.53 L 30.2,9.1 C 30.2,8.96 30.24,8.85 30.33,8.76 30.42,8.67 30.53,8.63 30.67,8.63 L 33.58,8.63 C 34.06,8.63 34.5,8.73 34.89,8.93 35.27,9.14 35.58,9.42 35.81,9.78 36.04,10.14 36.15,10.54 36.15,10.99 36.15,11.42 36.04,11.8 35.81,12.13 35.58,12.47 35.28,12.73 34.89,12.91 35.44,13.06 35.88,13.34 36.2,13.73 36.52,14.13 36.68,14.63 36.68,15.23 36.68,15.76 36.56,16.24 36.31,16.66 36.06,17.08 35.72,17.41 35.28,17.65 34.85,17.88 34.35,18 33.79,18 L 30.73,18 Z M 33.58,12.54 C 34.07,12.54 34.47,12.4 34.78,12.13 35.09,11.85 35.24,11.47 35.24,10.99 35.24,10.53 35.09,10.17 34.78,9.91 34.48,9.66 34.08,9.53 33.58,9.53 L 31.14,9.53 31.14,12.54 33.58,12.54 Z M 33.79,17.1 C 34.37,17.1 34.85,16.93 35.21,16.59 35.57,16.25 35.76,15.8 35.76,15.23 35.76,14.68 35.57,14.25 35.21,13.93 34.85,13.6 34.37,13.44 33.79,13.44 L 31.14,13.44 31.14,17.1 33.79,17.1 Z M 39.84,18 C 39.35,18 38.95,17.81 38.64,17.42 38.33,17.03 38.18,16.53 38.18,15.92 L 38.18,9.08 C 38.18,8.95 38.22,8.84 38.31,8.75 38.4,8.67 38.51,8.63 38.64,8.63 38.77,8.63 38.88,8.67 38.97,8.75 39.05,8.84 39.09,8.95 39.09,9.08 L 39.09,15.92 C 39.09,16.27 39.16,16.55 39.3,16.76 39.44,16.98 39.62,17.09 39.84,17.09 L 40.14,17.09 C 40.26,17.09 40.35,17.13 40.42,17.21 40.5,17.3 40.53,17.41 40.53,17.54 40.53,17.68 40.48,17.79 40.38,17.87 40.28,17.96 40.15,18 39.99,18 L 39.84,18 Z M 42.46,18 C 42.33,18 42.22,17.96 42.13,17.87 42.04,17.78 42,17.67 42,17.53 L 42,11.9 C 42,11.77 42.04,11.66 42.13,11.57 42.22,11.48 42.33,11.44 42.46,11.44 42.6,11.44 42.71,11.48 42.79,11.57 42.88,11.66 42.92,11.77 42.92,11.9 L 42.92,17.53 C 42.92,17.67 42.88,17.78 42.79,17.87 42.71,17.96 42.6,18 42.46,18 Z M 42.45,10.19 C 42.27,10.19 42.11,10.12 41.99,10 41.87,9.87 41.8,9.71 41.8,9.53 41.8,9.34 41.87,9.18 42,9.06 42.12,8.94 42.28,8.88 42.46,8.88 42.64,8.88 42.79,8.94 42.92,9.06 43.05,9.18 43.11,9.34 43.11,9.53 43.11,9.71 43.05,9.87 42.92,10 42.79,10.12 42.64,10.19 42.45,10.19 Z M 48.38,11.36 C 48.95,11.36 49.46,11.48 49.91,11.72 50.36,11.96 50.72,12.31 50.97,12.77 51.23,13.23 51.36,13.78 51.36,14.42 L 51.36,17.54 C 51.36,17.67 51.31,17.78 51.22,17.87 51.14,17.96 51.03,18 50.9,18 50.76,18 50.65,17.96 50.56,17.87 50.48,17.78 50.43,17.67 50.43,17.54 L 50.43,14.42 C 50.43,13.71 50.23,13.17 49.84,12.8 49.44,12.43 48.92,12.24 48.28,12.24 47.89,12.24 47.54,12.32 47.22,12.47 46.91,12.62 46.66,12.83 46.47,13.1 46.29,13.37 46.2,13.66 46.2,13.99 L 46.2,17.54 C 46.2,17.68 46.15,17.79 46.07,17.87 45.99,17.96 45.88,18 45.74,18 45.6,18 45.49,17.96 45.4,17.87 45.32,17.79 45.27,17.68 45.27,17.54 L 45.27,11.9 C 45.27,11.77 45.32,11.66 45.4,11.57 45.49,11.48 45.6,11.44 45.74,11.44 45.88,11.44 45.99,11.48 46.07,11.57 46.15,11.66 46.2,11.77 46.2,11.9 L 46.2,12.31 C 46.46,12.02 46.78,11.78 47.16,11.62 47.53,11.45 47.94,11.36 48.38,11.36 Z M 58.35,17.34 C 58.42,17.42 58.46,17.51 58.46,17.62 58.46,17.74 58.4,17.84 58.29,17.94 58.2,18.01 58.1,18.05 58,18.05 57.88,18.05 57.77,17.99 57.68,17.88 L 55.21,14.84 54.31,15.66 54.31,17.54 C 54.31,17.68 54.27,17.79 54.18,17.87 54.1,17.96 53.99,18 53.85,18 53.72,18 53.61,17.96 53.52,17.87 53.44,17.79 53.4,17.68 53.4,17.54 L 53.4,9.08 C 53.4,8.95 53.44,8.84 53.52,8.75 53.61,8.67 53.72,8.63 53.85,8.63 53.99,8.63 54.1,8.67 54.18,8.75 54.27,8.84 54.31,8.95 54.31,9.08 L 54.31,14.54 57.69,11.48 C 57.78,11.4 57.88,11.36 57.98,11.36 58.1,11.36 58.2,11.41 58.28,11.51 58.37,11.61 58.41,11.71 58.41,11.8 58.41,11.91 58.36,12.01 58.26,12.1 L 55.86,14.27 58.35,17.34 Z M 64.11,18.19 C 63.39,18.19 62.75,18.05 62.18,17.77 61.61,17.49 61.17,17.1 60.85,16.6 60.54,16.1 60.38,15.54 60.38,14.9 L 60.38,9.1 C 60.38,8.96 60.42,8.85 60.51,8.76 60.6,8.67 60.71,8.63 60.85,8.63 60.98,8.63 61.1,8.67 61.18,8.76 61.27,8.85 61.32,8.96 61.32,9.1 L 61.32,14.9 C 61.32,15.37 61.43,15.78 61.67,16.15 61.91,16.51 62.24,16.79 62.66,17 63.08,17.2 63.57,17.3 64.11,17.3 64.65,17.3 65.12,17.2 65.54,17 65.96,16.79 66.28,16.51 66.52,16.15 66.75,15.78 66.87,15.37 66.87,14.9 L 66.87,9.1 C 66.87,8.96 66.92,8.85 67,8.76 67.09,8.67 67.2,8.63 67.34,8.63 67.48,8.63 67.59,8.67 67.68,8.76 67.76,8.85 67.81,8.96 67.81,9.1 L 67.81,14.9 C 67.81,15.54 67.65,16.1 67.33,16.6 67.02,17.1 66.58,17.49 66.02,17.77 65.46,18.05 64.82,18.19 64.11,18.19 Z M 73.42,11.38 C 74.05,11.38 74.61,11.52 75.12,11.81 75.63,12.11 76.03,12.51 76.32,13.02 76.61,13.53 76.76,14.1 76.76,14.72 76.76,15.35 76.62,15.91 76.33,16.42 76.05,16.93 75.66,17.33 75.17,17.62 74.68,17.91 74.13,18.06 73.52,18.06 73,18.06 72.52,17.95 72.09,17.73 71.66,17.51 71.3,17.21 71.02,16.82 L 71.02,20.34 C 71.02,20.48 70.98,20.59 70.89,20.68 70.8,20.76 70.69,20.81 70.56,20.81 70.42,20.81 70.31,20.76 70.23,20.68 70.14,20.59 70.1,20.48 70.1,20.34 L 70.1,17.65 C 70.09,17.63 70.09,17.59 70.09,17.54 L 70.09,14.72 C 70.09,14.1 70.23,13.53 70.53,13.02 70.82,12.51 71.22,12.11 71.73,11.81 72.23,11.52 72.8,11.38 73.42,11.38 Z M 73.42,17.22 C 73.88,17.22 74.29,17.11 74.67,16.9 75.04,16.68 75.33,16.38 75.54,16 75.75,15.62 75.86,15.2 75.86,14.72 75.86,14.25 75.75,13.83 75.54,13.45 75.33,13.07 75.04,12.77 74.67,12.55 74.29,12.33 73.88,12.22 73.42,12.22 72.97,12.22 72.56,12.33 72.19,12.55 71.82,12.77 71.53,13.07 71.32,13.45 71.11,13.83 71,14.25 71,14.72 71,14.86 71,14.96 71.01,15.02 71.02,15.04 71.02,15.06 71.02,15.08 71.1,15.71 71.37,16.22 71.81,16.62 72.25,17.02 72.79,17.22 73.42,17.22 Z M 85.36,8.74 C 85.43,8.62 85.53,8.57 85.68,8.57 85.77,8.57 85.86,8.6 85.93,8.65 86.01,8.71 86.05,8.78 86.05,8.87 L 86.05,12.12 C 86.05,12.2 86.01,12.27 85.95,12.34 85.88,12.4 85.8,12.43 85.71,12.43 85.62,12.43 85.54,12.4 85.47,12.34 85.41,12.28 85.38,12.21 85.38,12.12 L 85.38,9.86 84.16,12.01 C 84.11,12.12 84.02,12.18 83.89,12.18 83.82,12.18 83.76,12.16 83.7,12.13 83.64,12.09 83.6,12.04 83.56,11.99 L 82.39,9.91 82.39,12.12 C 82.39,12.21 82.35,12.28 82.29,12.34 82.22,12.4 82.14,12.43 82.04,12.43 81.94,12.43 81.86,12.4 81.8,12.34 81.74,12.28 81.7,12.21 81.7,12.12 L 81.7,8.87 C 81.7,8.78 81.74,8.71 81.82,8.65 81.89,8.6 81.98,8.57 82.08,8.57 82.23,8.57 82.33,8.62 82.39,8.74 L 83.89,11.35 85.36,8.74 Z M 80.84,8.57 C 80.93,8.57 81,8.6 81.07,8.65 81.13,8.71 81.16,8.78 81.16,8.86 81.16,8.94 81.13,9 81.07,9.06 81,9.12 80.93,9.14 80.84,9.14 L 79.74,9.14 79.74,12.12 C 79.74,12.21 79.7,12.28 79.64,12.34 79.58,12.4 79.5,12.43 79.4,12.43 79.3,12.43 79.22,12.4 79.16,12.34 79.1,12.28 79.06,12.21 79.06,12.12 L 79.06,9.14 77.95,9.14 C 77.86,9.14 77.79,9.12 77.73,9.06 77.67,9 77.64,8.94 77.64,8.86 77.64,8.78 77.67,8.71 77.73,8.65 77.79,8.6 77.86,8.57 77.95,8.57 L 80.84,8.57 Z M 33.42,28.38 C 34.04,28.38 34.61,28.52 35.11,28.81 35.62,29.11 36.02,29.51 36.31,30.02 36.61,30.53 36.75,31.1 36.75,31.72 36.75,32.35 36.61,32.91 36.33,33.42 36.04,33.93 35.65,34.33 35.16,34.62 34.67,34.91 34.12,35.06 33.51,35.06 32.99,35.06 32.52,34.95 32.08,34.73 31.65,34.51 31.3,34.21 31.02,33.82 L 31.02,37.34 C 31.02,37.48 30.97,37.59 30.88,37.68 30.8,37.76 30.68,37.81 30.55,37.81 30.41,37.81 30.3,37.76 30.22,37.68 30.13,37.59 30.09,37.48 30.09,37.34 L 30.09,34.65 C 30.08,34.63 30.08,34.59 30.08,34.54 L 30.08,31.72 C 30.08,31.1 30.23,30.53 30.52,30.02 30.81,29.51 31.21,29.11 31.72,28.81 32.23,28.52 32.79,28.38 33.42,28.38 Z M 33.42,34.22 C 33.87,34.22 34.29,34.11 34.66,33.9 35.03,33.68 35.32,33.38 35.53,33 35.75,32.62 35.85,32.2 35.85,31.72 35.85,31.25 35.75,30.83 35.53,30.45 35.32,30.07 35.03,29.77 34.66,29.55 34.29,29.33 33.87,29.22 33.42,29.22 32.96,29.22 32.55,29.33 32.18,29.55 31.81,29.77 31.52,30.07 31.31,30.45 31.1,30.83 30.99,31.25 30.99,31.72 30.99,31.86 31,31.96 31,32.02 31.01,32.04 31.02,32.06 31.02,32.08 31.1,32.71 31.36,33.22 31.8,33.62 32.25,34.02 32.78,34.22 33.42,34.22 Z M 41.55,35.06 C 40.92,35.06 40.35,34.92 39.84,34.63 39.33,34.34 38.94,33.94 38.65,33.43 38.36,32.93 38.22,32.36 38.22,31.72 38.22,31.09 38.36,30.52 38.65,30.01 38.94,29.5 39.33,29.1 39.84,28.81 40.35,28.52 40.92,28.38 41.55,28.38 42.18,28.38 42.75,28.52 43.26,28.81 43.76,29.1 44.16,29.5 44.45,30.01 44.74,30.52 44.89,31.09 44.89,31.72 44.89,32.36 44.74,32.93 44.46,33.43 44.17,33.94 43.77,34.34 43.26,34.63 42.75,34.92 42.18,35.06 41.55,35.06 Z M 41.55,34.22 C 42.02,34.22 42.43,34.11 42.8,33.9 43.17,33.68 43.46,33.38 43.66,33 43.87,32.62 43.98,32.2 43.98,31.72 43.98,31.24 43.87,30.81 43.66,30.43 43.46,30.05 43.17,29.76 42.8,29.54 42.43,29.32 42.02,29.22 41.55,29.22 41.1,29.22 40.68,29.32 40.31,29.54 39.94,29.76 39.65,30.05 39.43,30.43 39.22,30.81 39.12,31.24 39.12,31.72 39.12,32.2 39.22,32.62 39.43,33 39.65,33.38 39.94,33.68 40.31,33.9 40.68,34.11 41.1,34.22 41.55,34.22 Z M 53.59,28.44 C 53.72,28.44 53.82,28.47 53.89,28.54 53.96,28.62 54,28.71 54,28.83 54,28.93 53.98,29.01 53.95,29.08 L 52.08,34.7 C 52.04,34.79 51.99,34.86 51.91,34.92 51.84,34.97 51.75,35 51.64,35 51.54,35 51.45,34.97 51.36,34.92 51.28,34.86 51.22,34.79 51.2,34.7 L 49.76,29.92 48.32,34.7 C 48.29,34.8 48.23,34.87 48.15,34.92 48.07,34.97 47.98,35 47.89,35 47.78,35 47.69,34.97 47.62,34.92 47.54,34.86 47.48,34.79 47.44,34.7 L 45.57,29.08 C 45.55,28.99 45.54,28.9 45.54,28.83 45.54,28.57 45.66,28.44 45.92,28.44 46.14,28.44 46.3,28.55 46.38,28.78 L 47.91,33.46 49.33,28.8 C 49.36,28.68 49.41,28.6 49.49,28.53 49.57,28.47 49.66,28.44 49.78,28.44 49.9,28.44 50,28.47 50.08,28.53 50.15,28.6 50.21,28.68 50.24,28.8 L 51.62,33.44 53.14,28.78 C 53.22,28.55 53.37,28.44 53.59,28.44 Z M 57.76,28.38 C 58.36,28.38 58.88,28.51 59.34,28.79 59.79,29.07 60.15,29.45 60.4,29.94 60.65,30.42 60.78,30.98 60.78,31.6 60.78,31.73 60.74,31.83 60.66,31.91 60.58,31.99 60.47,32.02 60.34,32.02 L 55.5,32.02 C 55.56,32.68 55.82,33.21 56.26,33.62 56.71,34.03 57.27,34.23 57.94,34.23 58.23,34.23 58.52,34.18 58.81,34.08 59.11,33.98 59.34,33.86 59.52,33.7 59.62,33.62 59.73,33.58 59.84,33.58 59.93,33.58 60.02,33.62 60.1,33.68 60.21,33.78 60.26,33.88 60.26,34 60.26,34.11 60.22,34.2 60.13,34.28 59.86,34.5 59.53,34.69 59.12,34.84 58.71,34.99 58.32,35.06 57.94,35.06 57.3,35.06 56.73,34.92 56.23,34.63 55.72,34.35 55.33,33.95 55.05,33.45 54.76,32.94 54.62,32.36 54.62,31.72 54.62,31.08 54.75,30.5 55.02,29.99 55.29,29.48 55.66,29.09 56.14,28.8 56.61,28.52 57.16,28.38 57.76,28.38 Z M 57.76,29.2 C 57.16,29.2 56.65,29.39 56.25,29.77 55.85,30.14 55.61,30.64 55.52,31.26 L 59.91,31.26 C 59.85,30.64 59.62,30.14 59.24,29.77 58.86,29.39 58.36,29.2 57.76,29.2 Z M 65.3,28.36 C 65.64,28.36 65.9,28.41 66.1,28.5 66.29,28.58 66.39,28.71 66.39,28.87 66.39,28.92 66.39,28.95 66.38,28.98 66.35,29.09 66.3,29.16 66.23,29.2 66.16,29.24 66.07,29.26 65.95,29.26 65.88,29.26 65.75,29.26 65.58,29.24 65.51,29.23 65.42,29.23 65.29,29.23 64.69,29.23 64.2,29.39 63.82,29.71 63.44,30.03 63.25,30.44 63.25,30.96 L 63.25,34.54 C 63.25,34.69 63.21,34.8 63.13,34.88 63.05,34.96 62.94,35 62.79,35 62.65,35 62.54,34.96 62.46,34.88 62.38,34.8 62.34,34.69 62.34,34.54 L 62.34,28.89 C 62.34,28.75 62.38,28.64 62.46,28.56 62.54,28.48 62.65,28.44 62.79,28.44 62.94,28.44 63.05,28.48 63.13,28.56 63.21,28.64 63.25,28.75 63.25,28.89 L 63.25,29.42 C 63.48,29.08 63.78,28.82 64.14,28.64 64.5,28.46 64.88,28.36 65.3,28.36 Z M 70,28.38 C 70.6,28.38 71.12,28.51 71.58,28.79 72.03,29.07 72.39,29.45 72.64,29.94 72.89,30.42 73.02,30.98 73.02,31.6 73.02,31.73 72.98,31.83 72.9,31.91 72.82,31.99 72.71,32.02 72.58,32.02 L 67.74,32.02 C 67.8,32.68 68.06,33.21 68.5,33.62 68.95,34.03 69.51,34.23 70.18,34.23 70.47,34.23 70.76,34.18 71.05,34.08 71.35,33.98 71.58,33.86 71.76,33.7 71.86,33.62 71.97,33.58 72.08,33.58 72.17,33.58 72.26,33.62 72.34,33.68 72.45,33.78 72.5,33.88 72.5,34 72.5,34.11 72.46,34.2 72.37,34.28 72.1,34.5 71.77,34.69 71.36,34.84 70.95,34.99 70.56,35.06 70.18,35.06 69.54,35.06 68.97,34.92 68.47,34.63 67.96,34.35 67.57,33.95 67.29,33.45 67,32.94 66.86,32.36 66.86,31.72 66.86,31.08 66.99,30.5 67.26,29.99 67.53,29.48 67.9,29.09 68.38,28.8 68.85,28.52 69.4,28.38 70,28.38 Z M 70,29.2 C 69.4,29.2 68.89,29.39 68.49,29.77 68.09,30.14 67.85,30.64 67.76,31.26 L 72.15,31.26 C 72.09,30.64 71.86,30.14 71.48,29.77 71.1,29.39 70.6,29.2 70,29.2 Z M 80.65,28.78 C 80.66,28.81 80.66,28.84 80.66,28.89 L 80.66,31.71 C 80.66,32.34 80.51,32.9 80.22,33.42 79.93,33.93 79.53,34.33 79.02,34.62 78.51,34.91 77.95,35.06 77.32,35.06 76.7,35.06 76.13,34.91 75.63,34.62 75.12,34.33 74.72,33.93 74.43,33.42 74.13,32.9 73.99,32.34 73.99,31.71 73.99,31.09 74.13,30.52 74.41,30.01 74.7,29.51 75.09,29.11 75.58,28.81 76.07,28.52 76.62,28.38 77.23,28.38 77.75,28.38 78.22,28.49 78.66,28.71 79.09,28.93 79.44,29.23 79.72,29.61 L 79.72,26.1 C 79.72,25.96 79.77,25.85 79.86,25.76 79.94,25.67 80.06,25.63 80.19,25.63 80.33,25.63 80.44,25.67 80.52,25.76 80.61,25.85 80.65,25.96 80.65,26.1 L 80.65,28.78 Z M 77.32,34.22 C 77.78,34.22 78.19,34.11 78.56,33.89 78.93,33.67 79.22,33.37 79.43,32.99 79.64,32.61 79.75,32.18 79.75,31.71 79.75,31.58 79.74,31.48 79.74,31.41 79.73,31.4 79.72,31.38 79.72,31.35 79.64,30.73 79.38,30.22 78.94,29.82 78.49,29.42 77.96,29.22 77.32,29.22 76.87,29.22 76.45,29.32 76.08,29.54 75.71,29.76 75.42,30.05 75.21,30.43 74.99,30.81 74.89,31.24 74.89,31.71 74.89,32.18 74.99,32.61 75.21,32.99 75.42,33.37 75.71,33.67 76.08,33.89 76.45,34.11 76.87,34.22 77.32,34.22 Z M 89.77,28.38 C 90.38,28.38 90.93,28.52 91.42,28.81 91.91,29.11 92.3,29.51 92.58,30.01 92.87,30.52 93.01,31.09 93.01,31.71 93.01,32.34 92.86,32.9 92.57,33.42 92.28,33.93 91.88,34.33 91.37,34.62 90.86,34.91 90.3,35.06 89.67,35.06 89.05,35.06 88.48,34.91 87.97,34.62 87.47,34.33 87.07,33.93 86.77,33.42 86.48,32.9 86.34,32.34 86.34,31.71 L 86.34,28.89 C 86.34,28.84 86.34,28.81 86.35,28.78 L 86.35,26.1 C 86.35,25.96 86.39,25.85 86.47,25.76 86.56,25.67 86.67,25.63 86.8,25.63 86.94,25.63 87.05,25.67 87.14,25.76 87.23,25.85 87.27,25.96 87.27,26.1 L 87.27,29.61 C 87.55,29.23 87.91,28.93 88.34,28.71 88.77,28.49 89.25,28.38 89.77,28.38 Z M 89.67,34.22 C 90.13,34.22 90.54,34.11 90.91,33.89 91.29,33.67 91.58,33.37 91.79,32.99 92,32.61 92.11,32.18 92.11,31.71 92.11,31.24 92,30.81 91.79,30.43 91.58,30.05 91.29,29.76 90.91,29.54 90.54,29.32 90.13,29.22 89.67,29.22 89.04,29.22 88.5,29.42 88.06,29.82 87.61,30.22 87.35,30.73 87.27,31.35 87.27,31.38 87.27,31.4 87.26,31.41 87.25,31.48 87.25,31.58 87.25,31.71 87.25,32.18 87.35,32.61 87.57,32.99 87.78,33.37 88.07,33.67 88.44,33.89 88.8,34.11 89.22,34.22 89.67,34.22 Z M 99.81,28.47 C 100,28.54 100.09,28.66 100.09,28.82 100.09,28.89 100.07,28.96 100.04,29.04 L 96.15,37.58 C 96.08,37.76 95.96,37.86 95.8,37.86 95.72,37.86 95.65,37.84 95.59,37.81 95.4,37.74 95.31,37.62 95.31,37.45 95.31,37.38 95.33,37.3 95.36,37.23 L 96.55,34.6 96.55,34.59 93.87,29.05 C 93.84,28.98 93.82,28.91 93.82,28.83 93.82,28.66 93.91,28.54 94.09,28.47 94.15,28.44 94.22,28.42 94.3,28.42 94.47,28.42 94.59,28.51 94.66,28.68 L 97,33.61 99.24,28.69 C 99.32,28.51 99.44,28.42 99.6,28.42 99.67,28.42 99.74,28.44 99.81,28.47 Z M 99.81,28.47" />
</svg>
