<?xml version="1.0" encoding="UTF-8"?>
<!DOCTYPE svg PUBLIC "-//W3C//DTD SVG 1.1//EN" "http://www.w3.org/Graphics/SVG/1.1/DTD/svg11.dtd">
<svg version="1.1" xmlns="http://www.w3.org/2000/svg" xmlns:xlink="http://www.w3.org/1999/xlink" width="193" height="41"  xml:space="preserve" id="electricImpLogoOnWhite">
    <!-- Generated by PaintCode (www.paintcodeapp.com) -->
    <g id="electricImpLogoOnWhite-electricImpLogoWhiteSVGsvgGroup">
        <g id="electricImpLogoOnWhite-group2">
            <g id="electricImpLogoOnWhite-group3">
                <g id="electricImpLogoOnWhite-group4">
                    <rect id="electricImpLogoOnWhite-rectangle" stroke="none" fill="rgb(0, 0, 0)" x="97.2" y="15.72" width="2" height="13.9" />
                    <rect id="electricImpLogoOnWhite-rectangle2" stroke="none" fill="rgb(0, 0, 0)" x="129.7" y="15.72" width="3" height="13.9" />
                    <path id="electricImpLogoOnWhite-bezier" stroke="none" fill="rgb(0, 0, 0)" d="M 152.13,15.18 C 150.28,15.18 148.51,16 147.43,17.39 146.31,16 144.57,15.18 142.72,15.18 139.48,15.18 136.86,17.6 136.86,20.59 L 136.86,29.92 139.14,29.92 139.14,20.59 C 139.14,18.77 140.76,17.28 142.72,17.28 144.69,17.28 146.31,18.77 146.31,20.59 L 146.31,29.92 148.58,29.92 148.58,20.59 C 148.58,18.77 150.2,17.28 152.17,17.28 154.14,17.28 155.76,18.77 155.76,20.59 L 155.76,29.92 158.03,29.92 158.03,20.59 C 157.99,17.6 155.37,15.18 152.13,15.18 Z M 152.13,15.18" />
                    <path id="electricImpLogoOnWhite-bezier2" stroke="none" fill="rgb(0, 0, 0)" d="M 177.51,19.88 C 176.27,17.03 173.34,15.18 170.1,15.18 167.98,15.18 166.01,15.96 164.51,17.35 163.01,18.74 162.16,20.59 162.12,22.55 L 162.12,22.55 162.12,35.62 164.43,35.62 164.43,28.07 C 165.98,29.53 167.98,30.35 170.18,30.35 173.34,30.35 176.19,28.57 177.51,25.86 177.97,24.87 178.2,23.83 178.2,22.76 178.12,21.77 177.93,20.81 177.51,19.88 Z M 175.31,25.01 C 174.38,26.93 172.34,28.18 170.1,28.18 166.94,28.18 164.36,25.76 164.36,22.76 164.36,19.77 166.94,17.35 170.1,17.35 172.45,17.35 174.5,18.67 175.38,20.73 175.65,21.38 175.81,22.09 175.81,22.76 175.81,23.55 175.65,24.3 175.31,25.01 Z M 175.31,25.01" />
                    <path id="electricImpLogoOnWhite-bezier3" stroke="none" fill="rgb(0, 0, 0)" d="M 78.71,10.72 L 76.39,10.72 76.39,24.65 C 76.39,27.57 78.98,29.96 82.14,29.96 L 83.33,29.96 83.33,27.82 82.14,27.82 C 80.25,27.82 78.71,26.4 78.71,24.69 L 78.71,17.85 83.33,17.85 83.33,15.71 78.71,15.75 78.71,10.72 Z M 78.71,10.72" />
                    <path id="electricImpLogoOnWhite-bezier5" stroke="none" fill="rgb(0, 0, 0)" d="M 22.87,15.18 C 18.51,15.18 15,18.6 15,22.84 15,27.07 18.55,30.49 22.87,30.49 25.03,30.49 27.07,29.64 28.54,28.14 L 29.15,27.54 29.19,27.5 27.69,26.22 27.65,26.18 27.03,26.83 C 25.91,27.93 24.45,28.57 22.87,28.57 21.48,28.57 20.13,28.07 19.09,27.18 18.05,26.29 17.35,25.12 17.16,23.8 L 30.73,23.8 30.73,22.84 C 30.73,18.6 27.22,15.18 22.87,15.18 Z M 17.16,21.87 C 17.39,20.56 18.09,19.34 19.09,18.49 20.13,17.6 21.48,17.1 22.87,17.1 24.26,17.1 25.6,17.6 26.65,18.49 27.69,19.38 28.38,20.56 28.57,21.87 L 17.16,21.87 Z M 17.16,21.87" />
                    <path id="electricImpLogoOnWhite-bezier7" stroke="none" fill="rgb(0, 0, 0)" d="M 47.89,15.18 C 43.54,15.18 40.03,18.6 40.03,22.84 40.03,27.07 43.58,30.49 47.89,30.49 50.05,30.49 52.1,29.64 53.56,28.14 L 54.18,27.54 54.22,27.5 52.71,26.22 52.68,26.18 52.06,26.83 C 50.94,27.93 49.48,28.57 47.89,28.57 46.51,28.57 45.16,28.07 44.12,27.18 43.07,26.29 42.38,25.12 42.19,23.8 L 55.76,23.8 55.76,22.84 C 55.76,18.6 52.25,15.18 47.89,15.18 Z M 42.19,21.87 C 42.42,20.56 43.11,19.34 44.12,18.49 45.16,17.6 46.51,17.1 47.89,17.1 49.28,17.1 50.63,17.6 51.67,18.49 52.71,19.38 53.41,20.56 53.6,21.87 L 42.19,21.87 Z M 42.19,21.87" />
                    <path id="electricImpLogoOnWhite-bezier9" stroke="none" fill="rgb(0, 0, 0)" d="M 66.67,17.35 C 69.03,17.35 71.07,18.67 71.96,20.77 L 71.96,20.81 74.08,19.95 74.08,19.91 C 72.84,17.03 69.91,15.18 66.67,15.18 62.24,15.18 58.65,18.6 58.65,22.84 58.65,27.04 62.24,30.49 66.67,30.49 69.84,30.49 72.69,28.71 74,25.97 L 74,25.93 71.92,25.08 71.88,25.08 71.88,25.12 C 70.96,27.07 68.91,28.32 66.67,28.32 63.51,28.32 60.93,25.86 60.93,22.87 60.93,19.81 63.51,17.35 66.67,17.35 Z M 66.67,17.35" />
                    <path id="electricImpLogoOnWhite-bezier11" stroke="none" fill="rgb(0, 0, 0)" d="M 111.22,17.35 C 113.57,17.35 115.61,18.67 116.5,20.77 L 116.5,20.81 118.62,19.95 118.62,19.91 C 117.39,17.03 114.45,15.18 111.22,15.18 106.78,15.18 103.19,18.6 103.19,22.84 103.19,27.04 106.78,30.49 111.22,30.49 114.38,30.49 117.23,28.71 118.54,25.97 L 118.54,25.93 116.46,25.08 116.42,25.08 116.42,25.12 C 115.5,27.07 113.45,28.32 111.22,28.32 108.05,28.32 105.51,25.86 105.51,22.87 105.47,19.81 108.05,17.35 111.22,17.35 Z M 111.22,17.35" />
                    <path id="electricImpLogoOnWhite-bezier13" stroke="none" fill="rgb(0, 0, 0)" d="M 86.46,20.98 L 86.46,29.96 88.73,29.96 88.73,21.09 C 88.73,19.34 90.28,17.92 92.2,17.92 L 94.25,17.92 94.25,15.78 92.2,15.78 C 89.08,15.71 86.5,18.06 86.46,20.98 Z M 86.46,20.98" />
                </g>
                <path id="electricImpLogoOnWhite-bezier15" stroke="none" fill="rgb(0, 0, 0)" d="M 36.75,26.87 C 36.48,26.39 36.33,25.81 36.29,25.12 L 36.29,10.22 33.97,10.22 33.97,25.12 C 33.93,26.03 34.13,26.87 34.47,27.59 34.82,28.32 35.28,28.87 35.9,29.26 36.52,29.66 37.21,29.85 37.98,29.85 L 38.45,29.85 38.45,27.59 37.98,27.59 C 37.48,27.63 37.06,27.38 36.75,26.87 Z M 36.75,26.87" />
                <g id="electricImpLogoOnWhite-group5">
                    <circle id="electricImpLogoOnWhite-oval" stroke="none" fill="rgb(0, 0, 0)" cx="99.1" cy="10.62" r="2.4" />
                    <circle id="electricImpLogoOnWhite-oval2" stroke="none" fill="rgb(0, 0, 0)" cx="131.6" cy="10.62" r="2.4" />
                </g>
            </g>
            <g id="electricImpLogoOnWhite-group6">
                <path id="electricImpLogoOnWhite-bezier17" stroke="none" fill="rgb(78, 168, 178)" d="M 102.62,10.72 L 102.5,9.09 C 103.05,8.83 115.18,2.27 128.1,9.09 L 127.94,10.68 C 115.66,4.25 102.78,10.68 102.62,10.72 Z M 102.62,10.72" />
            </g>
        </g>
        
        <text  fill="rgb(0, 0, 0)" font-family="Helvetica, sans-serif" font-size="12" x="177.34" y="13.46"><tspan x="177.34" y="24.46">™</tspan></text>
    </g>
</svg>
